<svg xmlns="http://www.w3.org/2000/svg" version="1.1" viewBox="-5.0 -10.0 110.0 135.0">
 <path d="m92.074 51.453h-15.953v-3.0898c0-3.1758-2.5859-5.7578-5.7617-5.7578h-3.6836v-23.762c0-0.070312-0.003906-0.14453-0.011719-0.21484-0.003906-0.046875-0.011718-0.097656-0.019531-0.14453-0.003906-0.023437-0.007812-0.046875-0.011719-0.070313-0.011718-0.054687-0.023437-0.10937-0.039062-0.16406-0.003906-0.011719-0.007812-0.023438-0.007812-0.03125-0.015626-0.054688-0.035157-0.10938-0.058594-0.16406l-0.003906-0.011719-0.015626-0.035157c-0.019531-0.046874-0.042968-0.097656-0.070312-0.14844-0.007812-0.015625-0.015625-0.027344-0.023438-0.042969-0.019531-0.039062-0.046874-0.082031-0.078124-0.13281-0.007813-0.011719-0.015626-0.023438-0.019532-0.03125l-0.007812-0.007813c-0.03125-0.046875-0.0625-0.089843-0.10156-0.13672-0.007812-0.011718-0.015625-0.019531-0.023437-0.027343-0.050782-0.058594-0.097656-0.11328-0.14844-0.16406l-12.258-12.258c-0.050782-0.050782-0.10156-0.097656-0.16016-0.14453l-0.023438-0.019531-0.011719-0.011719c-0.046875-0.035156-0.089843-0.066406-0.13281-0.097656-0.015625-0.007812-0.027344-0.019531-0.042969-0.027344-0.046875-0.03125-0.089844-0.054687-0.13281-0.078124l-0.027344-0.015626-0.023438-0.011718c-0.050781-0.027344-0.10156-0.050782-0.15234-0.070313l-0.027343-0.011719-0.011719-0.003906c-0.054688-0.023437-0.10547-0.039062-0.16016-0.054687l-0.027344-0.007813-0.015625-0.003906c-0.0625-0.015625-0.11328-0.03125-0.16406-0.039062-0.019531-0.003907-0.042968-0.007813-0.066406-0.011719-0.050781-0.007813-0.097656-0.015625-0.14453-0.019531-0.070313-0.007813-0.14453-0.011719-0.21484-0.011719l-44.312-0.003907c-1.1953 0-2.168 0.97266-2.168 2.168l-0.003906 76.383c0 1.1953 0.97266 2.168 2.168 2.168h27.559v8.2812c0 1.1953 0.97266 2.168 2.168 2.168h54.426c1.1953 0 2.168-0.97266 2.168-2.168l0.003906-39.793c0-1.1953-0.97266-2.168-2.168-2.168zm-37.66-34.777v-4.8555l4.8555 4.8555zm11.75 58.227v8.8789c0 0.91406-0.74219 1.6602-1.6562 1.6602-0.91406 0-1.6602-0.74609-1.6602-1.6602v-8.8789h3.3203zm4.3359 3.1289v-5.2969c0-1.1953-0.97266-2.168-2.168-2.168h-7.6562c-1.1953 0-2.168 0.97266-2.168 2.168v5.1172c-10.199-2.6758-17.672-11.531-18.594-22.062h49.895c-0.9375 10.711-8.8594 19.824-19.312 22.242zm-30.68-9.0391c0.83203 1.3555 1.7695 2.6406 2.8125 3.8438 4.1289 4.7734 9.7422 8.1211 15.875 9.4805v1.4648c0 3.3086 2.6914 6 6 6 3.3086 0 5.9922-2.6914 5.9922-6v-1.3125c4.5039-0.87891 8.7812-2.8281 12.406-5.6641 2.7773-2.1719 5.1562-4.8398 6.9961-7.8398v22.285h-50.082zm31.965-17.539h-15.227v-3.0898c0-0.78516 0.64062-1.4219 1.4258-1.4219h12.375c0.78516 0 1.4258 0.63672 1.4258 1.4219zm-19.539-30.441h10.094v21.594h-4.3555c-3.1797 0-5.7617 2.582-5.7617 5.7578v3.0898h-14.57c-1.1953 0-2.168 0.97266-2.168 2.168v27.176h-25.391v-72.043h39.984v10.094c0 1.1953 0.97266 2.168 2.168 2.168zm-33.988 13.75c2.7148 2.6172 6.2734 4.0547 10.031 4.0547 3.7578 0 7.2891-1.4297 9.9961-4.0234 0.125-0.097657 0.23828-0.21094 0.33984-0.33594 2.6641-2.7227 4.1289-6.3086 4.1289-10.105 0-7.9766-6.4883-14.465-14.465-14.465-7.9766 0-14.465 6.4883-14.465 14.465 0 3.8203 1.4805 7.4258 4.1719 10.152 0.078125 0.09375 0.16797 0.17969 0.26172 0.25781zm9.8164-15.117h0.4375c1.2422 0 2.2539 1.0117 2.2539 2.2578s-1.0117 2.2578-2.2539 2.2578h-0.4375c-1.2422 0-2.2578-1.0117-2.2578-2.2578s1.0117-2.2578 2.2578-2.2578zm-1.9727 8.5508c0.63672 0.19922 1.3008 0.30078 1.9727 0.30078h0.4375c0.67578 0 1.3398-0.10156 1.9766-0.30469 1.9414 0.60156 3.4883 2.1602 4.082 4.0977-1.7852 1.4141-3.9961 2.1914-6.2773 2.1914-2.2852 0-4.4883-0.77344-6.2734-2.1875 0.59375-1.9336 2.1445-3.5078 4.0859-4.1016zm8.9961-6.293c0-3.6367-2.957-6.5938-6.5898-6.5938h-0.4375c-3.6367 0-6.5938 2.957-6.5938 6.5938 0 1.1484 0.30469 2.2812 0.87109 3.2734-1.3438 0.83594-2.4766 1.9609-3.3164 3.2891-0.57422-1.2891-0.875-2.6836-0.875-4.1094 0-5.5859 4.543-10.129 10.129-10.129 5.5859 0 10.129 4.543 10.129 10.129 0 1.4297-0.30078 2.832-0.87891 4.1211-0.84375-1.3281-1.9766-2.457-3.3125-3.2969 0.57031-0.99219 0.875-2.125 0.875-3.2773zm9.3398 20.082c0 1.1953-0.97266 2.168-2.168 2.168h-23.422c-1.1953 0-2.168-0.97266-2.168-2.168s0.97266-2.168 2.168-2.168h23.422c1.1953 0 2.168 0.97266 2.168 2.168zm-6.5391 6.1836c0 1.1953-0.97266 2.168-2.168 2.168h-16.883c-1.1953 0-2.168-0.97266-2.168-2.168 0-1.1953 0.97266-2.168 2.168-2.168h16.883c1.1953 0 2.168 0.97266 2.168 2.168z"/>
<text x="0.0" y="117.5" font-size="5.0" font-weight="bold" font-family="Arbeit Regular, Helvetica, Arial-Unicode, Arial, Sans-serif" fill="#000000">Created by zuri</text><text x="0.0" y="122.5" font-size="5.0" font-weight="bold" font-family="Arbeit Regular, Helvetica, Arial-Unicode, Arial, Sans-serif" fill="#000000">from Noun Project</text></svg>